<?xml version="1.0" encoding="utf-8"?>
<!-- Generator: Adobe Illustrator 27.0.0, SVG Export Plug-In . SVG Version: 6.00 Build 0)  -->
<svg version="1.1" id="Flag" xmlns="http://www.w3.org/2000/svg" xmlns:xlink="http://www.w3.org/1999/xlink" x="0px" y="0px"
	 viewBox="0 0 1990 1050" style="enable-background:new 0 0 1990 1050;" xml:space="preserve">
<style type="text/css">
	.st0{fill:#FFFFFF;}
	.st1{fill:#CE1124;}
	.st2{fill:#00247D;}
</style>
<g>
	<g>
		<rect y="0.1" class="st0" width="1989.48" height="1048.2"/>
		<polygon class="st1" points="1989.63,419.52 1113.63,419.52 1113.63,0.16 874.51,0.16 874.51,419.52 0.83,419.52 0.83,629.09 
			874.51,629.09 874.51,1048.28 1113.63,1048.28 1113.63,629.09 1989.63,629.09 		"/>
	</g>
	<g>
		<polygon class="st2" points="0.02,122.15 0.02,350.38 433.95,350.38 		"/>
		<polygon class="st2" points="239.42,0.05 233.06,0.34 795.72,297.83 795.72,0.05 		"/>
		<polygon class="st1" points="667.79,348.93 0.02,0.1 0.02,82.32 508.67,348.93 		"/>
		<polygon class="st1" points="1322.21,699.36 1989.99,1048.19 1989.99,965.97 1481.34,699.36 		"/>
	</g>
	<g>
		<polygon class="st2" points="0.02,927.9 0.02,699.67 433.95,699.67 		"/>
		<polygon class="st2" points="239.42,1050 233.06,1049.71 795.72,752.22 795.72,1050 		"/>
		<polygon class="st1" points="664.38,699.34 0.46,1048.01 155.73,1048.16 796.36,713.52 796.36,699.34 		"/>
	</g>
	<g>
		<polygon class="st2" points="1990,122.1 1990,350.32 1556.07,350.32 		"/>
		<polygon class="st2" points="1750.6,0 1756.96,0.29 1194.3,297.78 1194.3,0 		"/>
		<polygon class="st1" points="1989.36,0.49 1840.01,0.48 1194.87,337.48 1194.87,349.3 1331.36,349.3 		"/>
	</g>
	<g>
		<polygon class="st2" points="1990,927.81 1990,699.59 1556.07,699.59 		"/>
		<polygon class="st2" points="1750.6,1049.91 1756.96,1049.62 1194.3,752.13 1194.3,1049.91 		"/>
	</g>
</g>
</svg>
