<?xml version="1.0" encoding="utf-8"?>
<!-- Generator: Adobe Illustrator 27.0.0, SVG Export Plug-In . SVG Version: 6.00 Build 0)  -->
<svg version="1.1" xmlns="http://www.w3.org/2000/svg" xmlns:xlink="http://www.w3.org/1999/xlink" x="0px" y="0px"
	 viewBox="0 0 1920 1080" style="enable-background:new 0 0 1920 1080;" xml:space="preserve">
<style type="text/css">
	.st0{display:none;}
	.st1{display:inline;}
	.st2{fill:url(#XMLID_00000136394227793284343180000009293157200693283512_);}
	.st3{opacity:0.4;fill:url(#XMLID_00000089563836949087500090000012136094186057951879_);}
	.st4{fill:url(#XMLID_00000113327978607250820400000014582573272976601225_);}
	.st5{display:inline;opacity:0.6;fill:url(#XMLID_00000158743910645952910180000008425011085548138163_);}
	.st6{fill:url(#XMLID_00000106866586868997287560000016704719317257203890_);}
	.st7{opacity:0.4;fill:url(#XMLID_00000109741616383596657110000004342721638581144766_);}
	.st8{fill:url(#XMLID_00000168098242339861842020000005009206461438031281_);}
	.st9{fill:url(#XMLID_00000044873754832658578390000005922122476354017420_);}
	.st10{opacity:0.4;fill:url(#XMLID_00000103229208261418183390000008607183830265424821_);}
	.st11{fill:url(#XMLID_00000082343056242264674040000005627666478783198857_);}
	.st12{display:inline;opacity:0.6;fill:url(#XMLID_00000117662170316685838490000013671057027768990909_);}
	.st13{display:inline;opacity:0.6;fill:url(#XMLID_00000180351432257639627200000018412537133956396949_);}
	.st14{display:inline;fill:#1A428A;}
	.st15{font-family:'Barlow-Bold';}
	.st16{font-size:127.0695px;}
	.st17{letter-spacing:25;}
	.st18{fill:#4A4F54;}
	.st19{font-family:'Barlow-Regular';}
	.st20{font-size:72px;}
	.st21{letter-spacing:8;}
	.st22{display:inline;fill:url(#XMLID_00000076564522221010514400000010720582581629900961_);}
	.st23{display:inline;opacity:0.45;fill:#1A428A;}
	.st24{display:inline;fill:url(#XMLID_00000044135347319086140710000004159319822090228354_);}
	.st25{display:inline;fill:url(#XMLID_00000176021329821382033470000014302371840663257762_);}
	.st26{display:inline;fill:url(#XMLID_00000165913772758326993150000014886272656918948482_);}
	.st27{fill:url(#XMLID_00000067957591136147475960000012692377981292767628_);}
	.st28{opacity:0.4;fill:url(#XMLID_00000146469990533209628970000014153934285833398927_);}
	.st29{fill:url(#XMLID_00000084515721526328149430000012917490273642356148_);}
	.st30{opacity:0.6;fill:url(#XMLID_00000023250249139117580850000015778902211618740611_);}
	.st31{fill:url(#XMLID_00000000902903413880435530000002017059238752503216_);}
	.st32{opacity:0.4;fill:url(#XMLID_00000031893602480076734790000000531075481399327663_);}
	.st33{fill:url(#XMLID_00000050653759905139291860000018232412598954368686_);}
	.st34{fill:url(#XMLID_00000041292619826270521810000000074619952812769699_);}
	.st35{opacity:0.4;fill:url(#XMLID_00000016069343180501602700000016218278548982098592_);}
	.st36{fill:url(#XMLID_00000003786306950854848350000005770522232028124598_);}
	.st37{opacity:0.6;fill:url(#XMLID_00000112608683733157695680000006133244941657697203_);}
	.st38{opacity:0.6;fill:url(#XMLID_00000018950032854471379450000009137415908954600612_);}
	.st39{fill:#1A428A;}
	.st40{fill:url(#XMLID_00000011736685301239279440000006892831199521975438_);}
	.st41{opacity:0.45;fill:#1A428A;}
	.st42{fill:url(#XMLID_00000016761564205485068110000000540856886619987358_);}
	.st43{fill:url(#XMLID_00000026867952372779718990000018201776375054722716_);}
	.st44{fill:url(#XMLID_00000176737419931815224880000016584501520391976121_);}
</style>
<g id="Original" class="st0">
	<g id="XMLID_00000080202871266006448960000006226352827679547028_" class="st1">
		<g id="XMLID_00000023260631238089692420000010584407384534065043_">
			
				<radialGradient id="XMLID_00000164488298993544095860000005889724766818749875_" cx="-698.8223" cy="526.104" r="174.106" gradientTransform="matrix(1 0 0 1 1253.5352 0)" gradientUnits="userSpaceOnUse">
				<stop  offset="0" style="stop-color:#3CB4E5"/>
				<stop  offset="0.0297" style="stop-color:#3AAEE0"/>
				<stop  offset="0.2336" style="stop-color:#2E87C1"/>
				<stop  offset="0.4358" style="stop-color:#2569A9"/>
				<stop  offset="0.6332" style="stop-color:#1F5398"/>
				<stop  offset="0.8238" style="stop-color:#1B468D"/>
				<stop  offset="1" style="stop-color:#1A428A"/>
			</radialGradient>
			
				<polygon id="XMLID_00000018937152778978000540000017929621891028722096_" style="fill:url(#XMLID_00000164488298993544095860000005889724766818749875_);" points="
				590.17,769.76 519.25,769.76 519.25,318.34 590.17,282.45 			"/>
			
				<radialGradient id="XMLID_00000004542816697451340400000010523557945779537851_" cx="-698.8223" cy="526.104" r="174.106" gradientTransform="matrix(1 0 0 1 1253.5352 0)" gradientUnits="userSpaceOnUse">
				<stop  offset="0" style="stop-color:#3CB4E5"/>
				<stop  offset="0.0297" style="stop-color:#3AAEE0"/>
				<stop  offset="0.2336" style="stop-color:#2E87C1"/>
				<stop  offset="0.4358" style="stop-color:#2569A9"/>
				<stop  offset="0.6332" style="stop-color:#1F5398"/>
				<stop  offset="0.8238" style="stop-color:#1B468D"/>
				<stop  offset="1" style="stop-color:#1A428A"/>
			</radialGradient>
			
				<polygon id="XMLID_00000145737915476131937290000003190447416521193889_" style="opacity:0.4;fill:url(#XMLID_00000004542816697451340400000010523557945779537851_);" points="
				590.17,769.76 519.25,769.76 519.25,318.34 590.17,282.45 			"/>
		</g>
		
			<radialGradient id="XMLID_00000023992671778257201730000009717027547256405146_" cx="2345.4209" cy="526.104" r="174.106" gradientTransform="matrix(-1 0 0 1 2971.0576 0)" gradientUnits="userSpaceOnUse">
			<stop  offset="0" style="stop-color:#3CB4E5"/>
			<stop  offset="0.0297" style="stop-color:#3AAEE0"/>
			<stop  offset="0.2336" style="stop-color:#2E87C1"/>
			<stop  offset="0.4358" style="stop-color:#2569A9"/>
			<stop  offset="0.6332" style="stop-color:#1F5398"/>
			<stop  offset="0.8238" style="stop-color:#1B468D"/>
			<stop  offset="1" style="stop-color:#1A428A"/>
		</radialGradient>
		
			<polygon id="XMLID_00000035500785526496476250000012745754006794938772_" style="fill:url(#XMLID_00000023992671778257201730000009717027547256405146_);" points="
			590.17,769.76 661.1,769.76 661.1,318.34 590.17,282.45 		"/>
	</g>
	
		<linearGradient id="XMLID_00000163045855896995004290000002562733982951789716_" gradientUnits="userSpaceOnUse" x1="-771.2604" y1="494.9503" x2="-668.0319" y2="517.5624" gradientTransform="matrix(1 0 0 1 1253.5352 0)">
		<stop  offset="0" style="stop-color:#A67EB1"/>
		<stop  offset="1" style="stop-color:#A67EB1;stop-opacity:0"/>
	</linearGradient>
	
		<polygon id="XMLID_00000037670809850511024810000001378902233662733446_" style="display:inline;opacity:0.6;fill:url(#XMLID_00000163045855896995004290000002562733982951789716_);" points="
		581.74,294.35 525.3,322.77 525.3,726.76 581.74,726.76 	"/>
	<g id="XMLID_00000153677751534671257980000012585915833095877252_" class="st1">
		<g id="XMLID_00000065076897321270964000000012610529789675756448_">
			
				<radialGradient id="XMLID_00000127036240065661037580000017644124038490055075_" cx="-914.6744" cy="605.9855" r="126.4297" gradientTransform="matrix(1 0 0 0.8641 1253.5352 72.6191)" gradientUnits="userSpaceOnUse">
				<stop  offset="0" style="stop-color:#3CB4E5"/>
				<stop  offset="0.0297" style="stop-color:#3AAEE0"/>
				<stop  offset="0.2336" style="stop-color:#2E87C1"/>
				<stop  offset="0.4358" style="stop-color:#2569A9"/>
				<stop  offset="0.6332" style="stop-color:#1F5398"/>
				<stop  offset="0.8238" style="stop-color:#1B468D"/>
				<stop  offset="1" style="stop-color:#1A428A"/>
			</radialGradient>
			
				<polygon id="XMLID_00000054236356509499972940000006062231786622288786_" style="fill:url(#XMLID_00000127036240065661037580000017644124038490055075_);" points="
				364.61,749.17 313.11,749.17 313.11,465.9 364.61,443.38 			"/>
			
				<radialGradient id="XMLID_00000016040511210452895070000004323118156129562535_" cx="-914.6744" cy="605.9855" r="126.4297" gradientTransform="matrix(1 0 0 0.8641 1253.5352 72.6191)" gradientUnits="userSpaceOnUse">
				<stop  offset="0" style="stop-color:#3CB4E5"/>
				<stop  offset="0.0297" style="stop-color:#3AAEE0"/>
				<stop  offset="0.2336" style="stop-color:#2E87C1"/>
				<stop  offset="0.4358" style="stop-color:#2569A9"/>
				<stop  offset="0.6332" style="stop-color:#1F5398"/>
				<stop  offset="0.8238" style="stop-color:#1B468D"/>
				<stop  offset="1" style="stop-color:#1A428A"/>
			</radialGradient>
			
				<polygon id="XMLID_00000127743467877065167310000001892976131283407233_" style="opacity:0.4;fill:url(#XMLID_00000016040511210452895070000004323118156129562535_);" points="
				364.61,749.17 313.11,749.17 313.11,465.9 364.61,443.38 			"/>
		</g>
		
			<radialGradient id="XMLID_00000101063228335106474420000002554784809823189158_" cx="2580.6934" cy="605.9855" r="126.4297" gradientTransform="matrix(-1 0 0 0.8641 2971.0576 72.6191)" gradientUnits="userSpaceOnUse">
			<stop  offset="0" style="stop-color:#3CB4E5"/>
			<stop  offset="0.0297" style="stop-color:#3AAEE0"/>
			<stop  offset="0.2336" style="stop-color:#2E87C1"/>
			<stop  offset="0.4358" style="stop-color:#2569A9"/>
			<stop  offset="0.6332" style="stop-color:#1F5398"/>
			<stop  offset="0.8238" style="stop-color:#1B468D"/>
			<stop  offset="1" style="stop-color:#1A428A"/>
		</radialGradient>
		
			<polygon id="XMLID_00000078726226823750341610000002899573376705594779_" style="fill:url(#XMLID_00000101063228335106474420000002554784809823189158_);" points="
			364.61,749.17 416.12,749.17 416.12,465.9 364.61,443.38 		"/>
	</g>
	<g id="XMLID_00000152971331254713035120000014592412266436936361_" class="st1">
		<g id="XMLID_00000170262003316008923940000009572307373601943714_">
			
				<linearGradient id="XMLID_00000135648844889370134820000013330142403017830846_" gradientUnits="userSpaceOnUse" x1="474.141" y1="799.0975" x2="474.141" y2="278.538" gradientTransform="matrix(-1 0 0 1 967.467 0)">
				<stop  offset="0" style="stop-color:#A48D29"/>
				<stop  offset="0.48" style="stop-color:#F3EFA1"/>
				<stop  offset="1" style="stop-color:#A48D29"/>
			</linearGradient>
			
				<polygon id="XMLID_00000080926299403393300780000009796785454615152011_" style="fill:url(#XMLID_00000135648844889370134820000013330142403017830846_);" points="
				467.57,769.76 519.08,769.76 519.08,398.96 467.57,369.48 			"/>
			
				<linearGradient id="XMLID_00000155859600361201139420000000085509525317173388_" gradientUnits="userSpaceOnUse" x1="474.141" y1="799.0975" x2="474.141" y2="278.538" gradientTransform="matrix(-1 0 0 1 967.467 0)">
				<stop  offset="0" style="stop-color:#A48D29"/>
				<stop  offset="0.48" style="stop-color:#F3EFA1"/>
				<stop  offset="1" style="stop-color:#A48D29"/>
			</linearGradient>
			
				<polygon id="XMLID_00000091737922084411105870000004707055257887169430_" style="opacity:0.4;fill:url(#XMLID_00000155859600361201139420000000085509525317173388_);" points="
				467.57,769.76 519.08,769.76 519.08,398.96 467.57,369.48 			"/>
		</g>
		
			<linearGradient id="XMLID_00000181071028226684638140000005613559117766314930_" gradientUnits="userSpaceOnUse" x1="1191.8779" y1="799.0975" x2="1191.8779" y2="278.538" gradientTransform="matrix(1 0 0 1 -750.0555 0)">
			<stop  offset="0" style="stop-color:#A48D29"/>
			<stop  offset="0.48" style="stop-color:#F3EFA1"/>
			<stop  offset="1" style="stop-color:#A48D29"/>
		</linearGradient>
		
			<polygon id="XMLID_00000176024685490305007980000014662989509880466583_" style="fill:url(#XMLID_00000181071028226684638140000005613559117766314930_);" points="
			467.57,769.76 416.07,769.76 416.07,398.96 467.57,369.48 		"/>
	</g>
	
		<linearGradient id="XMLID_00000127730145859407191530000001130079739963859850_" gradientUnits="userSpaceOnUse" x1="-964.8837" y1="589.9796" x2="-892.3114" y2="605.8764" gradientTransform="matrix(1 0 0 1 1253.5352 0)">
		<stop  offset="0" style="stop-color:#A67EB1"/>
		<stop  offset="1" style="stop-color:#A67EB1;stop-opacity:0"/>
	</linearGradient>
	
		<polygon id="XMLID_00000000213852667516000590000000539102462359530661_" style="display:inline;opacity:0.6;fill:url(#XMLID_00000127730145859407191530000001130079739963859850_);" points="
		359.34,452.55 318.64,470.13 318.64,749.46 359.34,749.46 	"/>
	
		<linearGradient id="XMLID_00000174597385104591935110000013070274558394169500_" gradientUnits="userSpaceOnUse" x1="-874.7653" y1="577.0538" x2="-783.6537" y2="597.0117" gradientTransform="matrix(1 0 0 1 1253.5352 0)">
		<stop  offset="0" style="stop-color:#A67EB1"/>
		<stop  offset="1" style="stop-color:#A67EB1;stop-opacity:0"/>
	</linearGradient>
	
		<polygon id="XMLID_00000022552332508209552440000000455309309766054795_" style="display:inline;opacity:0.6;fill:url(#XMLID_00000174597385104591935110000013070274558394169500_);" points="
		462.51,379.18 421.81,401.96 421.81,802.7 461.95,802.7 	"/>
	
		<text id="XMLID_00000157272492998811178590000010730527049199898000_" transform="matrix(1 0 0 1 863.6816 535.3633)" class="st14 st15 st16 st17">TAILOR</text>
	<g id="XMLID_00000013876044270141586440000012479517966290945205_" class="st1">
		<text transform="matrix(1 0 0 1 863.6094 625.2793)" class="st18 st19 st20 st21">ECONOMÍA Y FINANZAS</text>
	</g>
	
		<radialGradient id="XMLID_00000146491357406430180330000002175452621852754613_" cx="585.6274" cy="499.319" r="231.6675" gradientTransform="matrix(-0.9952 0.0976 0.0976 0.9952 909.7849 -69.1823)" gradientUnits="userSpaceOnUse">
		<stop  offset="0.4046" style="stop-color:#3CB4E5"/>
		<stop  offset="0.4599" style="stop-color:#3397CE"/>
		<stop  offset="0.5314" style="stop-color:#2A78B5"/>
		<stop  offset="0.6067" style="stop-color:#2360A2"/>
		<stop  offset="0.6861" style="stop-color:#1E4F94"/>
		<stop  offset="0.7726" style="stop-color:#1B458C"/>
		<stop  offset="0.8791" style="stop-color:#1A428A"/>
	</radialGradient>
	
		<path id="XMLID_00000011752723684793442250000016223797058985482633_" style="display:inline;fill:url(#XMLID_00000146491357406430180330000002175452621852754613_);" d="
		M198.52,437.23c19.17-69.6,61.81-133.17,125.67-177.66c63.79-44.46,138.1-62.48,209.96-56.43
		c-55.76-0.68-112.25,15.35-161.49,49.67c-125.51,87.47-156.34,260.13-68.87,385.64c39.29,56.38,95.79,93.58,157.45,109.61
		C325.42,761.38,160.85,674.63,198.52,437.23z"/>
	<path id="XMLID_00000101064315783507164080000008320889412684308370_" class="st23" d="M198.52,437.23
		c4.28-15.53,9.8-30.75,16.39-45.54c-14.01,59.94,5.61,118.03,48.69,160.66c8.11,30,21.4,59.13,40.19,86.09
		c39.29,56.38,95.79,93.58,157.45,109.61C325.42,761.38,160.85,674.63,198.52,437.23z"/>
	
		<linearGradient id="XMLID_00000027580357817337120370000016132407959881030565_" gradientUnits="userSpaceOnUse" x1="132.7007" y1="638.1251" x2="771.3845" y2="638.1251" gradientTransform="matrix(-0.9952 0.0976 0.0976 0.9952 909.7849 -69.1823)">
		<stop  offset="0.2536" style="stop-color:#416BA9"/>
		<stop  offset="0.4096" style="stop-color:#416EAB"/>
		<stop  offset="0.5313" style="stop-color:#4078B4"/>
		<stop  offset="0.6415" style="stop-color:#3F89C1"/>
		<stop  offset="0.7442" style="stop-color:#3DA0D5"/>
		<stop  offset="0.8122" style="stop-color:#3CB4E5"/>
		<stop  offset="1" style="stop-color:#87D1E6"/>
	</linearGradient>
	
		<path id="XMLID_00000077306929492004653840000003306815235980142001_" style="display:inline;fill:url(#XMLID_00000027580357817337120370000016132407959881030565_);" d="
		M208.13,408.02c-41.88,187.6,155.04,315.15,253.12,340.03c75.63,19.66,159.05,7.45,228.18-40.74
		c21.55-15.02,40.26-32.57,56.09-51.95l-80.42-15.25l171.15-99.54l1.68,190.65l-51.21-51.92c-22.91,40.9-55.01,77.47-96.06,106.08
		C545.46,886.59,352,849,250.8,703.8C194.11,622.45,176.31,486.66,208.13,408.02z"/>
	
		<linearGradient id="XMLID_00000163051783093131441500000017663857897105279126_" gradientUnits="userSpaceOnUse" x1="191.64" y1="589.1284" x2="512.9548" y2="589.1284">
		<stop  offset="0.3474" style="stop-color:#3CB4E5"/>
		<stop  offset="0.4937" style="stop-color:#3CB0E2"/>
		<stop  offset="0.6521" style="stop-color:#3DA3D7"/>
		<stop  offset="0.816" style="stop-color:#3F8DC5"/>
		<stop  offset="0.9829" style="stop-color:#416FAC"/>
		<stop  offset="1" style="stop-color:#416BA9"/>
	</linearGradient>
	
		<path id="XMLID_00000079458931073740467530000018364863070838050742_" style="display:inline;fill:url(#XMLID_00000163051783093131441500000017663857897105279126_);" d="
		M208.02,407.84c-41.88,187.6,154.76,311.81,246.47,338.18c20.7,5.95,36.9,9.83,58.47,10.32c-81.64,27.92-160.86,11.61-240.74-25.22
		c-7.25-8.46-15.26-18.15-21.78-27.51C193.74,622.26,174.77,484.65,208.02,407.84z"/>
	
		<radialGradient id="XMLID_00000098915041037549847710000007363325452044006047_" cx="431.5696" cy="379.7987" r="214.6263" gradientTransform="matrix(-0.9997 0.0242 0.0242 0.9997 954.3723 -17.5508)" gradientUnits="userSpaceOnUse">
		<stop  offset="0.4046" style="stop-color:#3CB4E5"/>
		<stop  offset="0.5232" style="stop-color:#3BB1E3"/>
		<stop  offset="0.6086" style="stop-color:#38A8DB"/>
		<stop  offset="0.6836" style="stop-color:#3398CF"/>
		<stop  offset="0.7526" style="stop-color:#2D82BD"/>
		<stop  offset="0.8169" style="stop-color:#2465A6"/>
		<stop  offset="0.878" style="stop-color:#1A438A"/>
		<stop  offset="0.8791" style="stop-color:#1A428A"/>
	</radialGradient>
	
		<path id="XMLID_00000119100960928785105900000015807555176396335247_" style="display:inline;fill:url(#XMLID_00000098915041037549847710000007363325452044006047_);" d="
		M761.59,373.67c-65.77-127.82-222.7-178.12-350.52-112.35c-73.47,37.81-121.25,105.74-136.18,180.95
		c10.33-82.39,59.79-158.43,139.19-199.29c127.81-65.77,284.75-15.47,350.52,112.35c27.97,54.35,34.88,113.95,23.84,169.58
		C794.73,474.68,786.5,422.09,761.59,373.67z"/>
</g>
<g id="Vectorizada">
	<g id="XMLID_00000178906884599546108240000017033750652085677726_">
		<g id="XMLID_00000088815817199301561440000013066934449317955500_">
			
				<radialGradient id="XMLID_00000114778770471568486690000000111437665695846032_" cx="-698.8223" cy="526.104" r="174.106" gradientTransform="matrix(1 0 0 1 1253.5352 0)" gradientUnits="userSpaceOnUse">
				<stop  offset="0" style="stop-color:#3CB4E5"/>
				<stop  offset="0.0297" style="stop-color:#3AAEE0"/>
				<stop  offset="0.2336" style="stop-color:#2E87C1"/>
				<stop  offset="0.4358" style="stop-color:#2569A9"/>
				<stop  offset="0.6332" style="stop-color:#1F5398"/>
				<stop  offset="0.8238" style="stop-color:#1B468D"/>
				<stop  offset="1" style="stop-color:#1A428A"/>
			</radialGradient>
			
				<polygon id="XMLID_00000021806772223184350810000003177005212607012274_" style="fill:url(#XMLID_00000114778770471568486690000000111437665695846032_);" points="
				590.17,769.76 519.25,769.76 519.25,318.34 590.17,282.45 			"/>
			
				<radialGradient id="XMLID_00000035517436425589963480000017548613169943613862_" cx="-698.8223" cy="526.104" r="174.106" gradientTransform="matrix(1 0 0 1 1253.5352 0)" gradientUnits="userSpaceOnUse">
				<stop  offset="0" style="stop-color:#3CB4E5"/>
				<stop  offset="0.0297" style="stop-color:#3AAEE0"/>
				<stop  offset="0.2336" style="stop-color:#2E87C1"/>
				<stop  offset="0.4358" style="stop-color:#2569A9"/>
				<stop  offset="0.6332" style="stop-color:#1F5398"/>
				<stop  offset="0.8238" style="stop-color:#1B468D"/>
				<stop  offset="1" style="stop-color:#1A428A"/>
			</radialGradient>
			
				<polygon id="XMLID_00000026124224404410418030000017571015070513029818_" style="opacity:0.4;fill:url(#XMLID_00000035517436425589963480000017548613169943613862_);" points="
				590.17,769.76 519.25,769.76 519.25,318.34 590.17,282.45 			"/>
		</g>
		
			<radialGradient id="XMLID_00000032616903663546658220000004613377463809683647_" cx="2345.4209" cy="526.104" r="174.106" gradientTransform="matrix(-1 0 0 1 2971.0576 0)" gradientUnits="userSpaceOnUse">
			<stop  offset="0" style="stop-color:#3CB4E5"/>
			<stop  offset="0.0297" style="stop-color:#3AAEE0"/>
			<stop  offset="0.2336" style="stop-color:#2E87C1"/>
			<stop  offset="0.4358" style="stop-color:#2569A9"/>
			<stop  offset="0.6332" style="stop-color:#1F5398"/>
			<stop  offset="0.8238" style="stop-color:#1B468D"/>
			<stop  offset="1" style="stop-color:#1A428A"/>
		</radialGradient>
		
			<polygon id="XMLID_00000008844709695156323870000011009252514839719354_" style="fill:url(#XMLID_00000032616903663546658220000004613377463809683647_);" points="
			590.17,769.76 661.1,769.76 661.1,318.34 590.17,282.45 		"/>
	</g>
	
		<linearGradient id="XMLID_00000107581174570420660430000002032803929633516963_" gradientUnits="userSpaceOnUse" x1="-771.2604" y1="494.9503" x2="-668.0319" y2="517.5624" gradientTransform="matrix(1 0 0 1 1253.5352 0)">
		<stop  offset="0" style="stop-color:#A67EB1"/>
		<stop  offset="1" style="stop-color:#A67EB1;stop-opacity:0"/>
	</linearGradient>
	
		<polygon id="XMLID_00000054238598216748031200000001881440943302868665_" style="opacity:0.6;fill:url(#XMLID_00000107581174570420660430000002032803929633516963_);" points="
		581.74,294.35 525.3,322.77 525.3,726.76 581.74,726.76 	"/>
	<g id="XMLID_00000152957975029790517870000001667929296445640370_">
		<g id="XMLID_00000093898386622252738690000013560733747722580869_">
			
				<radialGradient id="XMLID_00000090276475828296976190000018138658630961653660_" cx="-914.6744" cy="605.9855" r="126.4297" gradientTransform="matrix(1 0 0 0.8641 1253.5352 72.6191)" gradientUnits="userSpaceOnUse">
				<stop  offset="0" style="stop-color:#3CB4E5"/>
				<stop  offset="0.0297" style="stop-color:#3AAEE0"/>
				<stop  offset="0.2336" style="stop-color:#2E87C1"/>
				<stop  offset="0.4358" style="stop-color:#2569A9"/>
				<stop  offset="0.6332" style="stop-color:#1F5398"/>
				<stop  offset="0.8238" style="stop-color:#1B468D"/>
				<stop  offset="1" style="stop-color:#1A428A"/>
			</radialGradient>
			
				<polygon id="XMLID_00000180333131732427082720000013809442507035066556_" style="fill:url(#XMLID_00000090276475828296976190000018138658630961653660_);" points="
				364.61,749.17 313.11,749.17 313.11,465.9 364.61,443.38 			"/>
			
				<radialGradient id="XMLID_00000176034753095879301170000011265218021357841086_" cx="-914.6744" cy="605.9855" r="126.4297" gradientTransform="matrix(1 0 0 0.8641 1253.5352 72.6191)" gradientUnits="userSpaceOnUse">
				<stop  offset="0" style="stop-color:#3CB4E5"/>
				<stop  offset="0.0297" style="stop-color:#3AAEE0"/>
				<stop  offset="0.2336" style="stop-color:#2E87C1"/>
				<stop  offset="0.4358" style="stop-color:#2569A9"/>
				<stop  offset="0.6332" style="stop-color:#1F5398"/>
				<stop  offset="0.8238" style="stop-color:#1B468D"/>
				<stop  offset="1" style="stop-color:#1A428A"/>
			</radialGradient>
			
				<polygon id="XMLID_00000168091052845649951910000000625360984351945861_" style="opacity:0.4;fill:url(#XMLID_00000176034753095879301170000011265218021357841086_);" points="
				364.61,749.17 313.11,749.17 313.11,465.9 364.61,443.38 			"/>
		</g>
		
			<radialGradient id="XMLID_00000050622766872083504070000013554059813843681205_" cx="2580.6934" cy="605.9855" r="126.4297" gradientTransform="matrix(-1 0 0 0.8641 2971.0576 72.6191)" gradientUnits="userSpaceOnUse">
			<stop  offset="0" style="stop-color:#3CB4E5"/>
			<stop  offset="0.0297" style="stop-color:#3AAEE0"/>
			<stop  offset="0.2336" style="stop-color:#2E87C1"/>
			<stop  offset="0.4358" style="stop-color:#2569A9"/>
			<stop  offset="0.6332" style="stop-color:#1F5398"/>
			<stop  offset="0.8238" style="stop-color:#1B468D"/>
			<stop  offset="1" style="stop-color:#1A428A"/>
		</radialGradient>
		
			<polygon id="XMLID_00000086685087593643034160000002327345439588930725_" style="fill:url(#XMLID_00000050622766872083504070000013554059813843681205_);" points="
			364.61,749.17 416.12,749.17 416.12,465.9 364.61,443.38 		"/>
	</g>
	<g id="XMLID_00000117650340915429925370000010324144559538126213_">
		<g id="XMLID_00000102530006366781412410000008107208730608271265_">
			
				<linearGradient id="XMLID_00000166636686368100074140000000987467793886328983_" gradientUnits="userSpaceOnUse" x1="474.141" y1="799.0975" x2="474.141" y2="278.538" gradientTransform="matrix(-1 0 0 1 967.467 0)">
				<stop  offset="0" style="stop-color:#A48D29"/>
				<stop  offset="0.48" style="stop-color:#F3EFA1"/>
				<stop  offset="1" style="stop-color:#A48D29"/>
			</linearGradient>
			
				<polygon id="XMLID_00000102505979592450499260000004528101164376657802_" style="fill:url(#XMLID_00000166636686368100074140000000987467793886328983_);" points="
				467.57,769.76 519.08,769.76 519.08,398.96 467.57,369.48 			"/>
			
				<linearGradient id="XMLID_00000021091949108876590480000000728259951859201962_" gradientUnits="userSpaceOnUse" x1="474.141" y1="799.0975" x2="474.141" y2="278.538" gradientTransform="matrix(-1 0 0 1 967.467 0)">
				<stop  offset="0" style="stop-color:#A48D29"/>
				<stop  offset="0.48" style="stop-color:#F3EFA1"/>
				<stop  offset="1" style="stop-color:#A48D29"/>
			</linearGradient>
			
				<polygon id="XMLID_00000107590724278234943170000000633612864171750827_" style="opacity:0.4;fill:url(#XMLID_00000021091949108876590480000000728259951859201962_);" points="
				467.57,769.76 519.08,769.76 519.08,398.96 467.57,369.48 			"/>
		</g>
		
			<linearGradient id="XMLID_00000044899322286482184410000014896926509191836823_" gradientUnits="userSpaceOnUse" x1="1191.8779" y1="799.0975" x2="1191.8779" y2="278.538" gradientTransform="matrix(1 0 0 1 -750.0555 0)">
			<stop  offset="0" style="stop-color:#A48D29"/>
			<stop  offset="0.48" style="stop-color:#F3EFA1"/>
			<stop  offset="1" style="stop-color:#A48D29"/>
		</linearGradient>
		
			<polygon id="XMLID_00000023283513259832884240000012504773314652824202_" style="fill:url(#XMLID_00000044899322286482184410000014896926509191836823_);" points="
			467.57,769.76 416.07,769.76 416.07,398.96 467.57,369.48 		"/>
	</g>
	
		<linearGradient id="XMLID_00000156573057266796056430000016719165320077738170_" gradientUnits="userSpaceOnUse" x1="-964.8837" y1="589.9796" x2="-892.3114" y2="605.8764" gradientTransform="matrix(1 0 0 1 1253.5352 0)">
		<stop  offset="0" style="stop-color:#A67EB1"/>
		<stop  offset="1" style="stop-color:#A67EB1;stop-opacity:0"/>
	</linearGradient>
	
		<polygon id="XMLID_00000060721072938255807620000004450484417591504026_" style="opacity:0.6;fill:url(#XMLID_00000156573057266796056430000016719165320077738170_);" points="
		359.34,452.55 318.64,470.13 318.64,749.46 359.34,749.46 	"/>
	
		<linearGradient id="XMLID_00000106834180124304901420000010793997800341369533_" gradientUnits="userSpaceOnUse" x1="-874.7653" y1="577.0538" x2="-783.6537" y2="597.0117" gradientTransform="matrix(1 0 0 1 1253.5352 0)">
		<stop  offset="0" style="stop-color:#A67EB1"/>
		<stop  offset="1" style="stop-color:#A67EB1;stop-opacity:0"/>
	</linearGradient>
	
		<polygon id="XMLID_00000089574383923523981970000003236300468880082346_" style="opacity:0.6;fill:url(#XMLID_00000106834180124304901420000010793997800341369533_);" points="
		462.51,379.18 421.81,401.96 421.81,802.7 461.95,802.7 	"/>
	<g>
		<path class="st39" d="M938.46,446.86c0.3,0.3,0.44,0.66,0.44,1.08v12.45c0,0.42-0.15,0.78-0.44,1.08c-0.3,0.3-0.66,0.44-1.08,0.44
			h-22.75c-0.42,0-0.64,0.21-0.64,0.64v71.29c0,0.42-0.15,0.78-0.44,1.08c-0.3,0.3-0.66,0.44-1.08,0.44h-14.87
			c-0.42,0-0.78-0.15-1.08-0.44c-0.3-0.3-0.44-0.66-0.44-1.08v-71.29c0-0.42-0.21-0.64-0.64-0.64h-22.11
			c-0.43,0-0.78-0.15-1.08-0.44c-0.3-0.3-0.44-0.66-0.44-1.08v-12.45c0-0.42,0.15-0.78,0.44-1.08c0.3-0.3,0.65-0.44,1.08-0.44h64.04
			C937.8,446.42,938.16,446.56,938.46,446.86z"/>
		<path class="st39" d="M1022.52,534.09l-3.81-12.45c-0.17-0.34-0.38-0.51-0.63-0.51h-31.26c-0.25,0-0.47,0.17-0.63,0.51
			l-3.69,12.45c-0.25,0.85-0.81,1.27-1.65,1.27H964.7c-0.51,0-0.89-0.15-1.14-0.44c-0.25-0.3-0.3-0.74-0.13-1.33l27.45-85.9
			c0.25-0.85,0.8-1.27,1.65-1.27h19.95c0.85,0,1.4,0.42,1.65,1.27l27.45,85.9c0.08,0.17,0.13,0.38,0.13,0.64
			c0,0.76-0.47,1.14-1.4,1.14h-16.14C1023.32,535.36,1022.77,534.94,1022.52,534.09z M991.26,507.28h22.37
			c0.51,0,0.68-0.25,0.51-0.76l-11.44-37.74c-0.08-0.34-0.21-0.49-0.38-0.45c-0.17,0.04-0.3,0.19-0.38,0.45l-11.18,37.74
			C990.66,507.03,990.83,507.28,991.26,507.28z"/>
		<path class="st39" d="M1078.74,534.92c-0.3-0.3-0.44-0.66-0.44-1.08v-85.9c0-0.42,0.15-0.78,0.44-1.08
			c0.3-0.3,0.66-0.44,1.08-0.44h14.87c0.42,0,0.78,0.15,1.08,0.44c0.3,0.3,0.45,0.66,0.45,1.08v85.9c0,0.42-0.15,0.78-0.45,1.08
			c-0.3,0.3-0.66,0.44-1.08,0.44h-14.87C1079.4,535.36,1079.04,535.22,1078.74,534.92z"/>
		<path class="st39" d="M1137.58,534.92c-0.3-0.3-0.44-0.66-0.44-1.08v-85.9c0-0.42,0.15-0.78,0.44-1.08
			c0.3-0.3,0.66-0.44,1.08-0.44h14.87c0.42,0,0.78,0.15,1.08,0.44c0.3,0.3,0.44,0.66,0.44,1.08v71.41c0,0.42,0.21,0.64,0.64,0.64
			h41.55c0.42,0,0.78,0.15,1.08,0.44c0.3,0.3,0.45,0.66,0.45,1.08v12.33c0,0.42-0.15,0.78-0.45,1.08c-0.3,0.3-0.66,0.44-1.08,0.44
			h-58.58C1138.23,535.36,1137.87,535.22,1137.58,534.92z"/>
		<path class="st39" d="M1248.38,532.69c-5.04-2.71-8.96-6.5-11.75-11.37c-2.79-4.87-4.19-10.48-4.19-16.84v-27.19
			c0-6.27,1.4-11.82,4.19-16.65c2.8-4.83,6.71-8.58,11.75-11.25c5.04-2.67,10.87-4,17.47-4c6.69,0,12.56,1.33,17.6,4
			c5.04,2.67,8.96,6.42,11.75,11.25c2.79,4.83,4.19,10.38,4.19,16.65v27.19c0,6.35-1.4,11.99-4.19,16.9
			c-2.8,4.91-6.71,8.7-11.75,11.37c-5.04,2.67-10.91,4-17.6,4C1259.24,536.76,1253.42,535.41,1248.38,532.69z M1277.16,516.94
			c2.88-2.96,4.32-6.9,4.32-11.82v-27.96c0-4.91-1.42-8.87-4.26-11.88c-2.84-3.01-6.63-4.51-11.37-4.51c-4.66,0-8.41,1.5-11.25,4.51
			c-2.84,3.01-4.26,6.97-4.26,11.88v27.96c0,4.91,1.42,8.85,4.26,11.82c2.84,2.97,6.59,4.45,11.25,4.45
			C1270.51,521.39,1274.28,519.9,1277.16,516.94z"/>
		<path class="st39" d="M1385.55,534.22l-15.88-35.2c-0.17-0.34-0.43-0.51-0.76-0.51h-11.82c-0.43,0-0.64,0.21-0.64,0.64v34.69
			c0,0.42-0.15,0.78-0.44,1.08c-0.3,0.3-0.66,0.44-1.08,0.44h-14.87c-0.43,0-0.79-0.15-1.08-0.44c-0.3-0.3-0.45-0.66-0.45-1.08
			v-85.9c0-0.42,0.15-0.78,0.45-1.08c0.29-0.3,0.65-0.44,1.08-0.44h36.34c5.42,0,10.19,1.1,14.29,3.3c4.11,2.2,7.29,5.34,9.53,9.4
			c2.24,4.07,3.37,8.77,3.37,14.1c0,5.76-1.44,10.7-4.32,14.8c-2.88,4.11-6.91,7.01-12.07,8.7c-0.42,0.17-0.55,0.47-0.38,0.89
			l17.28,35.96c0.17,0.34,0.25,0.59,0.25,0.76c0,0.68-0.47,1.02-1.4,1.02h-15.63C1386.48,535.36,1385.89,534.98,1385.55,534.22z
			 M1356.45,462.43v21.73c0,0.42,0.21,0.64,0.64,0.64h16.65c3.56,0,6.46-1.06,8.7-3.18c2.24-2.12,3.37-4.87,3.37-8.26
			c0-3.39-1.12-6.16-3.37-8.32c-2.25-2.16-5.15-3.24-8.7-3.24h-16.65C1356.66,461.79,1356.45,462,1356.45,462.43z"/>
	</g>
	<g>
		<g>
			<path class="st18" d="M903.57,579.34h-26.5c-0.19,0-0.29,0.1-0.29,0.29v17.78c0,0.19,0.1,0.29,0.29,0.29h18.58
				c0.48,0,0.72,0.24,0.72,0.72v3.02c0,0.48-0.24,0.72-0.72,0.72h-18.58c-0.19,0-0.29,0.1-0.29,0.29v18.07
				c0,0.19,0.1,0.29,0.29,0.29h26.5c0.48,0,0.72,0.24,0.72,0.72v3.02c0,0.48-0.24,0.72-0.72,0.72h-31.18
				c-0.48,0-0.72-0.24-0.72-0.72V575.6c0-0.48,0.24-0.72,0.72-0.72h31.18c0.48,0,0.72,0.24,0.72,0.72v3.02
				C904.29,579.1,904.05,579.34,903.57,579.34z"/>
			<path class="st18" d="M930.35,623.95c-2.54-1.32-4.52-3.19-5.94-5.62c-1.42-2.42-2.12-5.22-2.12-8.39v-19.8
				c0-3.12,0.71-5.88,2.12-8.28c1.42-2.4,3.4-4.26,5.94-5.58c2.54-1.32,5.5-1.98,8.86-1.98c3.36,0,6.31,0.65,8.86,1.94
				c2.54,1.3,4.52,3.12,5.94,5.47c1.42,2.35,2.12,5.06,2.12,8.14c0,0.24-0.07,0.43-0.22,0.58c-0.14,0.14-0.31,0.22-0.5,0.22
				l-3.67,0.22c-0.48,0-0.72-0.22-0.72-0.65V590c0-3.41-1.08-6.13-3.24-8.17c-2.16-2.04-5.02-3.06-8.57-3.06
				c-3.55,0-6.41,1.03-8.57,3.1c-2.16,2.06-3.24,4.78-3.24,8.14v20.16c0,3.36,1.08,6.07,3.24,8.14c2.16,2.06,5.02,3.1,8.57,3.1
				c3.55,0,6.41-1.02,8.57-3.06c2.16-2.04,3.24-4.76,3.24-8.17v-0.14c0-0.43,0.24-0.65,0.72-0.65l3.67,0.22
				c0.48,0,0.72,0.22,0.72,0.65c0,3.12-0.71,5.87-2.12,8.24c-1.42,2.38-3.4,4.21-5.94,5.51c-2.54,1.3-5.5,1.94-8.86,1.94
				C935.85,625.93,932.9,625.27,930.35,623.95z"/>
			<path class="st18" d="M982.77,623.77c-2.59-1.39-4.6-3.35-6.01-5.87c-1.42-2.52-2.12-5.44-2.12-8.75v-18.14
				c0-3.31,0.71-6.23,2.12-8.75c1.42-2.52,3.42-4.48,6.01-5.87c2.59-1.39,5.59-2.09,9-2.09c3.41,0,6.42,0.7,9.04,2.09
				c2.62,1.39,4.63,3.35,6.05,5.87c1.42,2.52,2.12,5.44,2.12,8.75v18.14c0,3.31-0.71,6.23-2.12,8.75c-1.42,2.52-3.43,4.48-6.05,5.87
				c-2.62,1.39-5.63,2.09-9.04,2.09C988.36,625.86,985.36,625.16,982.77,623.77z M1000.55,618.15c2.21-2.21,3.31-5.14,3.31-8.78
				v-18.43c0-3.65-1.11-6.59-3.31-8.82c-2.21-2.23-5.14-3.35-8.78-3.35c-3.6,0-6.5,1.12-8.71,3.35c-2.21,2.23-3.31,5.17-3.31,8.82
				v18.43c0,3.65,1.1,6.58,3.31,8.78c2.21,2.21,5.11,3.31,8.71,3.31C995.42,621.46,998.34,620.36,1000.55,618.15z"/>
			<path class="st18" d="M1060.38,574.88h3.67c0.48,0,0.72,0.24,0.72,0.72v48.96c0,0.48-0.24,0.72-0.72,0.72h-3.6
				c-0.34,0-0.62-0.17-0.86-0.5l-24.55-39.96c-0.05-0.14-0.12-0.2-0.22-0.18c-0.1,0.02-0.14,0.11-0.14,0.25l0.07,39.67
				c0,0.48-0.24,0.72-0.72,0.72h-3.67c-0.48,0-0.72-0.24-0.72-0.72V575.6c0-0.48,0.24-0.72,0.72-0.72h3.6c0.33,0,0.62,0.17,0.86,0.5
				l24.55,39.96c0.05,0.14,0.12,0.2,0.22,0.18c0.1-0.02,0.14-0.11,0.14-0.25l-0.07-39.67
				C1059.66,575.12,1059.9,574.88,1060.38,574.88z"/>
			<path class="st18" d="M1093.5,623.77c-2.59-1.39-4.6-3.35-6.01-5.87c-1.42-2.52-2.12-5.44-2.12-8.75v-18.14
				c0-3.31,0.71-6.23,2.12-8.75c1.41-2.52,3.42-4.48,6.01-5.87c2.59-1.39,5.59-2.09,9-2.09c3.41,0,6.42,0.7,9.04,2.09
				c2.62,1.39,4.63,3.35,6.05,5.87c1.42,2.52,2.12,5.44,2.12,8.75v18.14c0,3.31-0.71,6.23-2.12,8.75c-1.42,2.52-3.43,4.48-6.05,5.87
				c-2.62,1.39-5.63,2.09-9.04,2.09C1099.09,625.86,1096.1,625.16,1093.5,623.77z M1111.29,618.15c2.21-2.21,3.31-5.14,3.31-8.78
				v-18.43c0-3.65-1.11-6.59-3.31-8.82c-2.21-2.23-5.14-3.35-8.78-3.35c-3.6,0-6.5,1.12-8.71,3.35s-3.31,5.17-3.31,8.82v18.43
				c0,3.65,1.1,6.58,3.31,8.78c2.21,2.21,5.11,3.31,8.71,3.31C1106.15,621.46,1109.08,620.36,1111.29,618.15z"/>
			<path class="st18" d="M1173.93,574.88h3.74c0.48,0,0.72,0.24,0.72,0.72v48.96c0,0.48-0.24,0.72-0.72,0.72H1174
				c-0.48,0-0.72-0.24-0.72-0.72v-40.03c0-0.14-0.05-0.24-0.14-0.29c-0.1-0.05-0.17,0-0.21,0.14l-11.74,18
				c-0.24,0.34-0.53,0.5-0.86,0.5h-1.87c-0.34,0-0.62-0.14-0.86-0.43l-11.74-17.86c-0.05-0.14-0.12-0.19-0.22-0.14
				c-0.1,0.05-0.14,0.14-0.14,0.29v39.82c0,0.48-0.24,0.72-0.72,0.72h-3.67c-0.48,0-0.72-0.24-0.72-0.72V575.6
				c0-0.48,0.24-0.72,0.72-0.72h3.74c0.38,0,0.67,0.14,0.86,0.43l13.54,20.52c0.05,0.05,0.12,0.07,0.22,0.07s0.17-0.02,0.22-0.07
				l13.39-20.45C1173.3,575.05,1173.59,574.88,1173.93,574.88z"/>
			<path class="st18" d="M1200.06,569.88c-0.1-0.17-0.07-0.37,0.07-0.61l4.32-7.85c0.14-0.33,0.43-0.5,0.86-0.5h3.24
				c0.29,0,0.47,0.08,0.54,0.25c0.07,0.17,0.04,0.37-0.11,0.61l-4.9,7.85c-0.24,0.34-0.53,0.5-0.87,0.5h-2.59
				C1200.35,570.13,1200.16,570.04,1200.06,569.88z M1200.5,624.56V575.6c0-0.48,0.24-0.72,0.72-0.72h3.67
				c0.48,0,0.72,0.24,0.72,0.72v48.96c0,0.48-0.24,0.72-0.72,0.72h-3.67C1200.73,625.28,1200.5,625.04,1200.5,624.56z"/>
			<path class="st18" d="M1256.8,624.7l-2.88-9.07c-0.05-0.14-0.14-0.22-0.29-0.22h-21.53c-0.14,0-0.24,0.07-0.29,0.22l-2.88,9.07
				c-0.14,0.38-0.43,0.58-0.86,0.58h-3.89c-0.53,0-0.72-0.26-0.58-0.79l15.91-49.03c0.14-0.38,0.43-0.58,0.87-0.58h4.9
				c0.43,0,0.72,0.19,0.86,0.58l15.98,49.03l0.07,0.29c0,0.34-0.22,0.5-0.65,0.5h-3.89C1257.23,625.28,1256.94,625.09,1256.8,624.7z
				 M1233.29,611.13c0.07,0.07,0.16,0.11,0.25,0.11h18.58c0.1,0,0.18-0.04,0.25-0.11c0.07-0.07,0.08-0.16,0.04-0.25l-9.36-29.38
				c-0.05-0.1-0.12-0.14-0.22-0.14c-0.1,0-0.17,0.05-0.22,0.14l-9.36,29.38C1233.21,610.98,1233.22,611.06,1233.29,611.13z"/>
			<path class="st18" d="M1314.25,624.49v-21.31c0-0.19-0.03-0.31-0.07-0.36l-14.98-27.07c-0.1-0.19-0.14-0.33-0.14-0.43
				c0-0.29,0.22-0.43,0.65-0.43h3.89c0.43,0,0.72,0.17,0.86,0.5l12.1,21.96c0.05,0.05,0.12,0.07,0.22,0.07
				c0.1,0,0.17-0.02,0.22-0.07l12.17-21.96c0.19-0.33,0.48-0.5,0.86-0.5h3.89c0.29,0,0.48,0.08,0.58,0.25
				c0.1,0.17,0.07,0.37-0.07,0.61l-14.98,27.07c-0.05,0.05-0.07,0.17-0.07,0.36v21.31c0,0.48-0.24,0.72-0.72,0.72h-3.67
				C1314.49,625.21,1314.25,624.97,1314.25,624.49z"/>
			<path class="st18" d="M1407.49,579.34h-26.42c-0.19,0-0.29,0.1-0.29,0.29v17.78c0,0.19,0.1,0.29,0.29,0.29h18.5
				c0.48,0,0.72,0.24,0.72,0.72v3.02c0,0.48-0.24,0.72-0.72,0.72h-18.5c-0.19,0-0.29,0.1-0.29,0.29v22.1c0,0.48-0.24,0.72-0.72,0.72
				h-3.67c-0.48,0-0.72-0.24-0.72-0.72V575.6c0-0.48,0.24-0.72,0.72-0.72h31.1c0.48,0,0.72,0.24,0.72,0.72v3.02
				C1408.21,579.1,1407.97,579.34,1407.49,579.34z"/>
			<path class="st18" d="M1425.2,624.56V575.6c0-0.48,0.24-0.72,0.72-0.72h3.67c0.48,0,0.72,0.24,0.72,0.72v48.96
				c0,0.48-0.24,0.72-0.72,0.72h-3.67C1425.44,625.28,1425.2,625.04,1425.2,624.56z"/>
			<path class="st18" d="M1483.24,574.88h3.67c0.48,0,0.72,0.24,0.72,0.72v48.96c0,0.48-0.24,0.72-0.72,0.72h-3.6
				c-0.34,0-0.62-0.17-0.86-0.5l-24.55-39.96c-0.05-0.14-0.12-0.2-0.21-0.18c-0.1,0.02-0.14,0.11-0.14,0.25l0.07,39.67
				c0,0.48-0.24,0.72-0.72,0.72h-3.67c-0.48,0-0.72-0.24-0.72-0.72V575.6c0-0.48,0.24-0.72,0.72-0.72h3.6c0.34,0,0.62,0.17,0.87,0.5
				l24.55,39.96c0.05,0.14,0.12,0.2,0.22,0.18c0.1-0.02,0.14-0.11,0.14-0.25l-0.07-39.67
				C1482.52,575.12,1482.75,574.88,1483.24,574.88z"/>
			<path class="st18" d="M1538.82,624.7l-2.88-9.07c-0.05-0.14-0.14-0.22-0.29-0.22h-21.53c-0.14,0-0.24,0.07-0.29,0.22l-2.88,9.07
				c-0.14,0.38-0.43,0.58-0.86,0.58h-3.89c-0.53,0-0.72-0.26-0.58-0.79l15.91-49.03c0.14-0.38,0.43-0.58,0.86-0.58h4.9
				c0.43,0,0.72,0.19,0.86,0.58l15.98,49.03l0.07,0.29c0,0.34-0.22,0.5-0.65,0.5h-3.89C1539.25,625.28,1538.96,625.09,1538.82,624.7
				z M1515.31,611.13c0.07,0.07,0.16,0.11,0.25,0.11h18.58c0.1,0,0.18-0.04,0.25-0.11c0.07-0.07,0.08-0.16,0.04-0.25l-9.36-29.38
				c-0.05-0.1-0.12-0.14-0.22-0.14c-0.1,0-0.17,0.05-0.22,0.14l-9.36,29.38C1515.23,610.98,1515.24,611.06,1515.31,611.13z"/>
			<path class="st18" d="M1592.89,574.88h3.67c0.48,0,0.72,0.24,0.72,0.72v48.96c0,0.48-0.24,0.72-0.72,0.72h-3.6
				c-0.34,0-0.62-0.17-0.86-0.5l-24.55-39.96c-0.05-0.14-0.12-0.2-0.22-0.18c-0.1,0.02-0.14,0.11-0.14,0.25l0.07,39.67
				c0,0.48-0.24,0.72-0.72,0.72h-3.67c-0.48,0-0.72-0.24-0.72-0.72V575.6c0-0.48,0.24-0.72,0.72-0.72h3.6c0.33,0,0.62,0.17,0.86,0.5
				l24.55,39.96c0.05,0.14,0.12,0.2,0.22,0.18c0.1-0.02,0.14-0.11,0.14-0.25l-0.07-39.67
				C1592.17,575.12,1592.41,574.88,1592.89,574.88z"/>
			<path class="st18" d="M1615.93,624.56v-3.46c0-0.24,0.1-0.55,0.29-0.94l26.35-40.46c0.05-0.05,0.05-0.12,0-0.22
				c-0.05-0.1-0.12-0.14-0.22-0.14h-25.7c-0.48,0-0.72-0.24-0.72-0.72v-3.02c0-0.48,0.24-0.72,0.72-0.72h31.03
				c0.48,0,0.72,0.24,0.72,0.72v3.46c0,0.24-0.1,0.55-0.29,0.94l-26.28,40.46c-0.05,0.05-0.05,0.12,0,0.22
				c0.05,0.1,0.12,0.14,0.22,0.14h25.63c0.48,0,0.72,0.24,0.72,0.72v3.02c0,0.48-0.24,0.72-0.72,0.72h-31.03
				C1616.17,625.28,1615.93,625.04,1615.93,624.56z"/>
			<path class="st18" d="M1696.64,624.7l-2.88-9.07c-0.05-0.14-0.14-0.22-0.29-0.22h-21.53c-0.14,0-0.24,0.07-0.29,0.22l-2.88,9.07
				c-0.14,0.38-0.43,0.58-0.86,0.58h-3.89c-0.53,0-0.72-0.26-0.58-0.79l15.91-49.03c0.14-0.38,0.43-0.58,0.86-0.58h4.9
				c0.43,0,0.72,0.19,0.86,0.58l15.98,49.03l0.07,0.29c0,0.34-0.22,0.5-0.65,0.5h-3.89C1697.07,625.28,1696.79,625.09,1696.64,624.7
				z M1673.13,611.13c0.07,0.07,0.16,0.11,0.25,0.11h18.58c0.1,0,0.18-0.04,0.25-0.11c0.07-0.07,0.08-0.16,0.04-0.25l-9.36-29.38
				c-0.05-0.1-0.12-0.14-0.22-0.14c-0.1,0-0.17,0.05-0.22,0.14l-9.36,29.38C1673.05,610.98,1673.06,611.06,1673.13,611.13z"/>
			<path class="st18" d="M1719.07,622.18c-3.14-2.45-4.72-5.71-4.72-9.79v-2.23c0-0.48,0.24-0.72,0.72-0.72h3.53
				c0.48,0,0.72,0.24,0.72,0.72v1.94c0,2.78,1.15,5.03,3.46,6.73c2.3,1.71,5.5,2.56,9.58,2.56c3.7,0,6.5-0.78,8.42-2.34
				c1.92-1.56,2.88-3.64,2.88-6.23c0-1.68-0.44-3.12-1.33-4.32c-0.89-1.2-2.26-2.33-4.1-3.38c-1.85-1.05-4.45-2.28-7.81-3.67
				c-3.6-1.44-6.4-2.7-8.39-3.78c-1.99-1.08-3.6-2.47-4.82-4.18c-1.22-1.7-1.84-3.85-1.84-6.44c0-4.03,1.4-7.16,4.21-9.4
				c2.81-2.23,6.66-3.35,11.56-3.35c5.33,0,9.53,1.25,12.6,3.74c3.07,2.5,4.61,5.81,4.61,9.94v1.58c0,0.48-0.24,0.72-0.72,0.72h-3.6
				c-0.48,0-0.72-0.24-0.72-0.72v-1.3c0-2.78-1.09-5.06-3.28-6.84c-2.18-1.78-5.22-2.66-9.11-2.66c-3.41,0-6.02,0.7-7.85,2.09
				c-1.83,1.39-2.74,3.41-2.74,6.05c0,1.73,0.44,3.16,1.33,4.28c0.89,1.13,2.16,2.11,3.82,2.95s4.21,1.93,7.67,3.28
				c3.5,1.44,6.32,2.78,8.46,4.03c2.13,1.25,3.86,2.77,5.18,4.57s1.98,4,1.98,6.59c0,4.03-1.49,7.25-4.46,9.65
				c-2.98,2.4-7.1,3.6-12.38,3.6C1726.5,625.86,1722.21,624.63,1719.07,622.18z"/>
		</g>
	</g>
	
		<radialGradient id="XMLID_00000062893527690606823840000010957207943414693267_" cx="585.6274" cy="499.319" r="231.6675" gradientTransform="matrix(-0.9952 0.0976 0.0976 0.9952 909.7849 -69.1823)" gradientUnits="userSpaceOnUse">
		<stop  offset="0.4046" style="stop-color:#3CB4E5"/>
		<stop  offset="0.4599" style="stop-color:#3397CE"/>
		<stop  offset="0.5314" style="stop-color:#2A78B5"/>
		<stop  offset="0.6067" style="stop-color:#2360A2"/>
		<stop  offset="0.6861" style="stop-color:#1E4F94"/>
		<stop  offset="0.7726" style="stop-color:#1B458C"/>
		<stop  offset="0.8791" style="stop-color:#1A428A"/>
	</radialGradient>
	
		<path id="XMLID_00000000206017950065500480000014294524822868543106_" style="fill:url(#XMLID_00000062893527690606823840000010957207943414693267_);" d="
		M198.52,437.23c19.17-69.6,61.81-133.17,125.67-177.66c63.79-44.46,138.1-62.48,209.96-56.43
		c-55.76-0.68-112.25,15.35-161.49,49.67c-125.51,87.47-156.34,260.13-68.87,385.64c39.29,56.38,95.79,93.58,157.45,109.61
		C325.42,761.38,160.85,674.63,198.52,437.23z"/>
	<path id="XMLID_00000026864860193015543110000013385203365924768687_" class="st41" d="M198.52,437.23
		c4.28-15.53,9.8-30.75,16.39-45.54c-14.01,59.94,5.61,118.03,48.69,160.66c8.11,30,21.4,59.13,40.19,86.09
		c39.29,56.38,95.79,93.58,157.45,109.61C325.42,761.38,160.85,674.63,198.52,437.23z"/>
	
		<linearGradient id="XMLID_00000045588170501166870260000015103716538329707657_" gradientUnits="userSpaceOnUse" x1="132.7007" y1="638.1251" x2="771.3845" y2="638.1251" gradientTransform="matrix(-0.9952 0.0976 0.0976 0.9952 909.7849 -69.1823)">
		<stop  offset="0.2536" style="stop-color:#416BA9"/>
		<stop  offset="0.4096" style="stop-color:#416EAB"/>
		<stop  offset="0.5313" style="stop-color:#4078B4"/>
		<stop  offset="0.6415" style="stop-color:#3F89C1"/>
		<stop  offset="0.7442" style="stop-color:#3DA0D5"/>
		<stop  offset="0.8122" style="stop-color:#3CB4E5"/>
		<stop  offset="1" style="stop-color:#87D1E6"/>
	</linearGradient>
	
		<path id="XMLID_00000103248600764818345190000000219309471492954498_" style="fill:url(#XMLID_00000045588170501166870260000015103716538329707657_);" d="
		M208.13,408.02c-41.88,187.6,155.04,315.15,253.12,340.03c75.63,19.66,159.05,7.45,228.18-40.74
		c21.55-15.02,40.26-32.57,56.09-51.95l-80.42-15.25l171.15-99.54l1.68,190.65l-51.21-51.92c-22.91,40.9-55.01,77.47-96.06,106.08
		C545.46,886.59,352,849,250.8,703.8C194.11,622.45,176.31,486.66,208.13,408.02z"/>
	
		<linearGradient id="XMLID_00000119100021492957280750000011612758559741475477_" gradientUnits="userSpaceOnUse" x1="191.64" y1="589.1284" x2="512.9548" y2="589.1284">
		<stop  offset="0.3474" style="stop-color:#3CB4E5"/>
		<stop  offset="0.4937" style="stop-color:#3CB0E2"/>
		<stop  offset="0.6521" style="stop-color:#3DA3D7"/>
		<stop  offset="0.816" style="stop-color:#3F8DC5"/>
		<stop  offset="0.9829" style="stop-color:#416FAC"/>
		<stop  offset="1" style="stop-color:#416BA9"/>
	</linearGradient>
	
		<path id="XMLID_00000077297709093813218370000003869078044951429538_" style="fill:url(#XMLID_00000119100021492957280750000011612758559741475477_);" d="
		M208.02,407.84c-41.88,187.6,154.76,311.81,246.47,338.18c20.7,5.95,36.9,9.83,58.47,10.32c-81.64,27.92-160.86,11.61-240.74-25.22
		c-7.25-8.46-15.26-18.15-21.78-27.51C193.74,622.26,174.77,484.65,208.02,407.84z"/>
	
		<radialGradient id="XMLID_00000041976999647313577650000009850160426723962773_" cx="431.5696" cy="379.7987" r="214.6263" gradientTransform="matrix(-0.9997 0.0242 0.0242 0.9997 954.3723 -17.5508)" gradientUnits="userSpaceOnUse">
		<stop  offset="0.4046" style="stop-color:#3CB4E5"/>
		<stop  offset="0.5232" style="stop-color:#3BB1E3"/>
		<stop  offset="0.6086" style="stop-color:#38A8DB"/>
		<stop  offset="0.6836" style="stop-color:#3398CF"/>
		<stop  offset="0.7526" style="stop-color:#2D82BD"/>
		<stop  offset="0.8169" style="stop-color:#2465A6"/>
		<stop  offset="0.878" style="stop-color:#1A438A"/>
		<stop  offset="0.8791" style="stop-color:#1A428A"/>
	</radialGradient>
	
		<path id="XMLID_00000119819392866771605610000014358261704514240169_" style="fill:url(#XMLID_00000041976999647313577650000009850160426723962773_);" d="
		M761.59,373.67c-65.77-127.82-222.7-178.12-350.52-112.35c-73.47,37.81-121.25,105.74-136.18,180.95
		c10.33-82.39,59.79-158.43,139.19-199.29c127.81-65.77,284.75-15.47,350.52,112.35c27.97,54.35,34.88,113.95,23.84,169.58
		C794.73,474.68,786.5,422.09,761.59,373.67z"/>
</g>
</svg>
